<svg xmlns="http://www.w3.org/2000/svg" viewBox="0 0 1280.00162 295.56133">
  <defs>
    <style>
      .a {
        fill: #fcfcfc;
      }
    </style>
  </defs>
  <g>
    <path class="a" d="M139.14,259.11591q1.16208-2.90734,4.64981-12.49975,3.48844-9.59291,8.33268-23.44788,4.8435-13.853,10.75592-30.71533,5.908-16.85907,12.0141-34.20313,6.10537-17.34145,11.8219-33.91333,5.71279-16.56857,10.36706-29.74621,4.6506-13.17544,7.65558-21.89777,3.00064-8.72,3.58386-10.46466,1.936-6.00448.67865-9.39868a8.79826,8.79826,0,0,0-5.23236-5.03864,32.257,32.257,0,0,0-10.1734-2.03436q-6.20517-.38589-13.95239-.38739a74.2821,74.2821,0,0,0-25.483,4.84424,116.24263,116.24263,0,0,0-25.968,13.565A151.122,151.122,0,0,0,103.967,84.70734a147.93091,147.93091,0,0,0-33.91333,58.42652A117.51776,117.51776,0,0,0,64.919,177.725a103.8567,103.8567,0,0,0,9.786,45.73377,66.58753,66.58753,0,0,0,7.17062,12.01489q3.39308,4.26471,4.36,5.2323a3.42871,3.42871,0,0,1,.96842,3.58533q-.58095,2.03486-3.87509,2.03442-1.16208,0-7.65409-.67785a97.5611,97.5611,0,0,1-15.79458-3.2948,108.71228,108.71228,0,0,1-19.76578-7.94532,71.30272,71.30272,0,0,1-19.37842-14.7279,76.82234,76.82234,0,0,1-14.82471-23.5448Q.00111,181.99146.00033,161.64069A89.24144,89.24144,0,0,1,8.23694,123.9491,112.30737,112.30737,0,0,1,31.78171,90.90882a164.327,164.327,0,0,1,37.20736-27.034,248.44934,248.44934,0,0,1,49.02784-19.86261,349.76656,349.76656,0,0,1,40.01651-9.39868,332.28866,332.28866,0,0,1,34.39678-4.16632q6.39588-.387,16.56934-1.066,10.1748-.67749,20.92932-1.84143,10.756-1.16217,20.4444-2.90667a82.2861,82.2861,0,0,0,15.50329-4.06952q3.29334-1.35279,4.74738-.67786a5.38717,5.38717,0,0,1,2.42175,3.00354q.19071.581,3.19794,9.68921Q279.24646,41.69,284.189,56.3177q4.94111,14.63369,11.14331,33.4284,6.1985,18.79843,12.88642,38.75684,6.68637,19.96161,13.2738,39.72668,6.58658,19.76652,12.1117,36.23822,5.52429,16.47327,9.39868,28.38977,3.87423,11.918,5.426,16.18115a66.61243,66.61243,0,0,0,6.87934,14.43738,54.24644,54.24644,0,0,0,8.72155,10.46472,40.33911,40.33911,0,0,0,20.83173,10.36707,3.27435,3.27435,0,0,1,2.132,1.35645,3.05757,3.05757,0,0,1,.38739,2.132,3.46453,3.46453,0,0,1-1.16357,2.03443,3.91256,3.91256,0,0,1-2.713.87231H261.80649a3.21949,3.21949,0,0,1-2.22809-.77551,3.74216,3.74216,0,0,1-1.16358-1.8407,2.3243,2.3243,0,0,1,.38886-2.03442,4.76481,4.76481,0,0,1,2.61542-1.55091q1.936-.581,6.87933-2.13122a30.80164,30.80164,0,0,0,9.59235-5.1355,22.36847,22.36847,0,0,0,7.073-9.59241q2.42176-6.00458-.67712-15.30969-2.71665-8.139-7.84924-23.83533-5.1363-15.69708-11.72431-35.269H177.89688q-3.87882,12.40375-7.36432,23.6416-3.48843,11.24158-6.20074,20.15393-2.71665,8.91651-4.45758,14.92151-1.74307,6.009-2.32563,8.139-1.55245,7.17206.67865,11.62744a18.0766,18.0766,0,0,0,6.10462,7.073,26.94786,26.94786,0,0,0,8.3327,3.77905q4.45532,1.16326,7.36432,1.9375a3.284,3.284,0,0,1,2.32562,1.45337,3.18738,3.18738,0,0,1,.38739,2.132,3.016,3.016,0,0,1-1.16357,1.8407,3.60332,3.60332,0,0,1-2.32416.77551H107.55237a3.51354,3.51354,0,0,1-2.42176-.77551,2.66287,2.66287,0,0,1-.96988-1.7439,3.20551,3.20551,0,0,1,.581-2.03442,3.52927,3.52927,0,0,1,2.22955-1.45337,78.04364,78.04364,0,0,0,9.97971-3.2948,42.81427,42.81427,0,0,0,8.91375-4.94177,38.20243,38.20243,0,0,0,7.558-7.26673A39.87407,39.87407,0,0,0,139.14,259.11591Zm121.50434-78.48425q-4.45981-13.37064-9.01129-27.0332-4.55513-13.66224-8.81763-26.45221-4.26462-12.78955-8.04144-23.93213-3.779-11.14179-6.492-19.57282-2.71674-8.42962-4.45758-13.37133a53.04147,53.04147,0,0,1-1.74463-5.32917,1.372,1.372,0,0,0-1.53918-1.18139q-.05421.00714-.10779.01855a1.91039,1.91039,0,0,0-1.647,1.35651q-.19511.39138-1.74311,5.426-1.55465,5.04191-4.26391,13.37134-2.71674,8.33413-6.29834,19.476-3.58823,11.14518-7.65405,23.836-4.06953,12.69415-8.33271,26.35462-4.26471,13.66223-8.52636,27.0332Z"/>
    <path class="a" d="M503.65146,111.45a40.66938,40.66938,0,0,1,13.75873,2.03436,25.15931,25.15931,0,0,1,9.10888,5.426,19.92116,19.92116,0,0,1,5.03717,7.94537,29.57423,29.57423,0,0,1,1.55091,9.59235q0,9.30231-5.911,14.53418-5.91237,5.23269-15.79309,5.23236-7.55794,0-11.82043-2.713a37.46292,37.46292,0,0,1-7.26819-5.91022q-3.005-3.19794-5.52209-5.911a8.14148,8.14148,0,0,0-6.20221-2.713,14.07568,14.07568,0,0,0-7.073,2.22882q-3.779,2.22994-6.97547,8.42956-3.198,6.204-5.32989,17.05353-2.13336,10.85449-2.132,28.09924v67.05042q0,7.752,2.61688,12.20849a20.73759,20.73759,0,0,0,6.007,6.78247,21.69585,21.69585,0,0,0,6.68567,3.19727,40.87908,40.87908,0,0,0,4.845,1.066,3.93754,3.93754,0,0,1,2.22809,1.25964,2.2053,2.2053,0,0,1,.48492,1.8407,3.143,3.143,0,0,1-1.066,1.7439,3.51359,3.51359,0,0,1-2.42176.77551H387.37948a3.51272,3.51272,0,0,1-2.42321-.77551,3.12389,3.12389,0,0,1-1.06452-1.7439,2.17981,2.17981,0,0,1,.48346-1.8407,3.91666,3.91666,0,0,1,2.22956-1.25964,41.112,41.112,0,0,0,4.8435-1.066,21.75722,21.75722,0,0,0,6.68567-3.19727,20.77321,20.77321,0,0,0,6.00855-6.78247q2.61474-4.45661,2.61541-12.20849V152.53254a2.86227,2.86227,0,0,0-2.32562-3.10034,22.56506,22.56506,0,0,1-2.80908-.581q-2.42615-.58209-5.52362-1.3565-3.10254-.773-5.71729-1.35651-2.61474-.58218-3.19647-.77545-2.52154-.581-2.61688-2.61615-.09979-2.03467,2.81061-2.80988a168.43458,168.43458,0,0,0,16.37414-4.7481q8.81763-3.00165,17.73139-6.78254,8.91293-3.77791,17.24792-8.139a154.42648,154.42648,0,0,0,14.92084-8.8169,5.33682,5.33682,0,0,1,3.58532-.96911q1.84068.19518,1.8407,2.90667v27.71186q6.78177-14.92081,18.41-22.28583A47.87843,47.87843,0,0,1,503.65146,111.45Z"/>
    <path class="a" d="M746.65707,285.0832a3.9418,3.9418,0,0,1,2.22949,1.25964,2.20434,2.20434,0,0,1,.48353,1.8407,3.13506,3.13506,0,0,1-1.066,1.7439,3.51365,3.51365,0,0,1-2.42176.77551H675.73141a5.40175,5.40175,0,0,1-3.3916-.96912,3.65672,3.65672,0,0,1-1.25964-3.10034V269.58a1.66906,1.66906,0,0,0-.96839-1.74389,1.41983,1.41983,0,0,0-1.74462.581q-1.74316,2.13557-5.81336,6.68567a54.26545,54.26545,0,0,1-11.14331,9.10816,75.70711,75.70711,0,0,1-17.44006,7.94519,78.46594,78.46594,0,0,1-24.321,3.3916q-15.50409,0-27.13006-4.06946a63.81935,63.81935,0,0,1-34.0094-26.9364,85.62193,85.62193,0,0,1-8.72-18.79736,108.79779,108.79779,0,0,1-4.45765-19.76648,147.25876,147.25876,0,0,1-1.25964-18.60364,136.61593,136.61593,0,0,1,5.3299-39.43543,82.66517,82.66517,0,0,1,16.08435-30.328,70.78116,70.78116,0,0,1,26.9364-19.37848q16.17819-6.78186,38.07818-6.78253a133.16462,133.16462,0,0,1,21.123,1.45337,107.34062,107.34062,0,0,1,14.72858,3.294,48.3879,48.3879,0,0,1,8.72,3.48846q2.90734,1.64877,3.29407,1.8407a1.70582,1.70582,0,0,0,1.84069.38812,1.36876,1.36876,0,0,0,.87232-1.35651V42.07386a2.86225,2.86225,0,0,0-2.32569-3.10034,22.4876,22.4876,0,0,1-2.80908-.58179q-2.42614-.581-5.52356-1.35577-3.10254-.7728-5.71582-1.35724-2.61694-.581-3.19793-.77472-2.52155-.581-2.61689-2.61615-.09978-2.03467,2.81061-2.80982a168.58173,168.58173,0,0,0,16.37567-4.74816q8.81544-3.00165,17.73145-6.78254,8.91082-3.779,17.24646-8.139A154.63929,154.63929,0,0,0,717.97763.99146a5.33078,5.33078,0,0,1,3.58386-.96911q1.84075.19509,1.84216,2.90667V260.27814q0,7.75324,3.10035,12.49976a24.91077,24.91077,0,0,0,7.073,7.36353,27.98858,27.98858,0,0,0,7.75171,3.68212A42.05759,42.05759,0,0,0,746.65707,285.0832ZM670.88656,175.39936A92.53143,92.53143,0,0,0,670.208,164.741a77.36609,77.36609,0,0,0-2.32422-11.72358,59.35385,59.35385,0,0,0-4.45758-11.337,39.07776,39.07776,0,0,0-7.073-9.68921,33.63966,33.63966,0,0,0-10.07733-6.87933,32.28171,32.28171,0,0,0-13.37134-2.61615q-11.43677.00009-19.57208,5.81335a42.13524,42.13524,0,0,0-13.17768,15.98755,86.18866,86.18866,0,0,0-7.36432,24.02972,181.22215,181.22215,0,0,0-2.32562,29.93988q0,4.26471.0976,11.53064a137.45242,137.45242,0,0,0,1.16211,15.59937,123.16806,123.16806,0,0,0,3.3916,16.85986,52.99051,52.99051,0,0,0,6.78326,15.309,36.88457,36.88457,0,0,0,11.43305,11.14331q6.97467,4.36011,17.24646,4.36,13.17545,0,21.123-4.845A35.76545,35.76545,0,0,0,663.91116,256.403a41.9741,41.9741,0,0,0,5.61969-14.82544,82.74407,82.74407,0,0,0,1.35571-13.85559Z"/>
    <path class="a" d="M815.06039,187.996q-3.10254,0-3.10034,3.29395,0,19.7666,3.48767,33.91259,3.48854,14.14783,10.17346,23.15808a40.0605,40.0605,0,0,0,16.66541,13.27381,58.51234,58.51234,0,0,0,23.15735,4.26391,68.491,68.491,0,0,0,17.92651-2.13195,79.01756,79.01756,0,0,0,13.66113-4.94178,74.09237,74.09237,0,0,0,9.49622-5.32922,40.02906,40.02906,0,0,1,5.426-3.29395q2.71014-1.16326,4.26245.48426,1.55016,1.649,0,4.94177-.581,1.16327-2.61548,4.55371a57.7153,57.7153,0,0,1-5.911,7.84851,84.57655,84.57655,0,0,1-9.68848,9.30188,73.21648,73.21648,0,0,1-13.85632,8.91455,88.99058,88.99058,0,0,1-18.41,6.68567A94.74661,94.74661,0,0,1,842.5776,295.548a96.07794,96.07794,0,0,1-35.07543-6.10461A73.55731,73.55731,0,0,1,780.66183,271.712a80.07481,80.07481,0,0,1-17.24646-28.29284q-6.10308-16.66407-6.10461-37.59473,0-22.86347,7.558-40.5014a90.54542,90.54542,0,0,1,19.76575-29.55256,85.28288,85.28288,0,0,1,59.29883-24.32025q15.1159,0,26.6466,4.16632a70.319,70.319,0,0,1,19.95948,10.852,65.95039,65.95039,0,0,1,13.95239,14.92157A95.43934,95.43934,0,0,1,913.407,157.765a77.76581,77.76581,0,0,1,4.74744,15.30969,65.22167,65.22167,0,0,1,1.3573,11.43311,2.92652,2.92652,0,0,1-1.25965,2.713,6.429,6.429,0,0,1-3.3916.77551Zm-2.132-12.79028q-.39038,2.52026,2.32569,2.51928c.38733,0,1.67663-.03027,3.87512-.0968q3.29334-.0954,8.043-.29052,4.74609-.19062,10.17346-.38807,5.4223-.19078,10.36707-.38733,4.94329-.19061,8.52783-.29052a36.06168,36.06168,0,0,0,4.55371-.29053,12.33744,12.33744,0,0,0,6.49194-2.713q3.38654-2.51605,3.39014-8.72083a64.1064,64.1064,0,0,0-1.54944-12.98327,55.45394,55.45394,0,0,0-4.941-13.95313,37.13914,37.13914,0,0,0-8.624-11.14258,18.81063,18.81063,0,0,0-12.79029-4.55371,17.47489,17.47489,0,0,0-10.46472,3.19721,28.86692,28.86692,0,0,0-7.65405,8.3327,55.51753,55.51753,0,0,0-5.33,11.337,118.84756,118.84756,0,0,0-3.48767,12.1117q-1.35735,5.91357-2.03442,10.852-.681,4.941-.87232,7.46033Z"/>
    <path class="a" d="M1147.78891,285.0832a3.93764,3.93764,0,0,1,2.228,1.25964,2.20043,2.20043,0,0,1,.485,1.8407,3.14315,3.14315,0,0,1-1.066,1.7439,3.51363,3.51363,0,0,1-2.42175.77551h-97.28089a3.50955,3.50955,0,0,1-2.42321-.77551,3.12643,3.12643,0,0,1-1.066-1.7439,2.18579,2.18579,0,0,1,.485-1.8407,3.9174,3.9174,0,0,1,2.228-1.25964,42.08622,42.08622,0,0,0,5.33-1.25965,28.02618,28.02618,0,0,0,7.7517-3.68212,24.98712,24.98712,0,0,0,7.073-7.36353q3.09814-4.747,3.10034-12.49976V176.75581q-.19518-8.139-1.25964-16.76227a50.43769,50.43769,0,0,0-4.45764-15.697,29.67559,29.67559,0,0,0-9.8822-11.62677q-6.49567-4.55191-17.344-4.55445-11.24139,0-17.44165,4.45685a27.5447,27.5447,0,0,0-9.20495,11.04645,42.9588,42.9588,0,0,0-3.6814,14.04925q-.68079,7.46265-.67859,13.27454V260.2779q-.00018,7.75323,3.10034,12.49976a24.91587,24.91587,0,0,0,7.07447,7.36352,27.96033,27.96033,0,0,0,7.75012,3.68213,41.99673,41.99673,0,0,0,5.33,1.25964,3.93765,3.93765,0,0,1,2.228,1.25965,2.20525,2.20525,0,0,1,.485,1.8407,3.14321,3.14321,0,0,1-1.066,1.74389,3.51364,3.51364,0,0,1-2.42176.77552H933.45968a3.50826,3.50826,0,0,1-2.42175-.77552,3.12641,3.12641,0,0,1-1.066-1.74389,2.1858,2.1858,0,0,1,.485-1.8407,3.91739,3.91739,0,0,1,2.228-1.25965,42.08578,42.08578,0,0,0,5.33-1.25964,28.02627,28.02627,0,0,0,7.75171-3.68213,25.00374,25.00374,0,0,0,7.073-7.36352q3.09594-4.747,3.10034-12.49976V152.53248a2.86225,2.86225,0,0,0-2.32568-3.10034,22.61274,22.61274,0,0,1-2.81055-.581q-2.424-.58218-5.5221-1.3565-3.10254-.77289-5.71728-1.35651-2.61475-.58209-3.19641-.77545-2.52154-.581-2.61695-2.61615-.09978-2.03477,2.81055-2.80988a168.55255,168.55255,0,0,0,16.37415-4.7481q8.81542-3.00174,17.73132-6.78254,8.91083-3.77783,17.24792-8.139a154.43486,154.43486,0,0,0,14.92078-8.8169,5.33686,5.33686,0,0,1,3.58533-.96911q1.83837.19518,1.8407,2.90667v16.66614a73.27055,73.27055,0,0,1,9.30261-7.07379,64.28527,64.28527,0,0,1,11.72436-5.91022,84.64046,84.64046,0,0,1,14.53345-4.06952,93.93832,93.93832,0,0,1,17.73145-1.55017q15.88768-.00009,26.64514,3.48773a54.04175,54.04175,0,0,1,17.829,9.30188,40.99362,40.99362,0,0,1,10.85205,13.37134,62.84758,62.84758,0,0,1,5.426,15.697,99.737,99.737,0,0,1,1.93824,16.18122q.2904,8.04363.28979,15.01843v75.77051q0,7.75305,3.10181,12.49975a24.89447,24.89447,0,0,0,7.073,7.36353,27.98863,27.98863,0,0,0,7.75171,3.68213A42.04589,42.04589,0,0,0,1147.78891,285.0832Z"/>
    <path class="a" d="M1274.13669,262.60371q3.48614-1.74428,5.03723.38733a3.78589,3.78589,0,0,1,.19519,4.45764,49.149,49.149,0,0,1-8.81763,11.33618,58.19317,58.19317,0,0,1-12.11169,8.91443,61.15911,61.15911,0,0,1-14.82471,5.81335,68.91577,68.91577,0,0,1-16.95666,2.03516,74.587,74.587,0,0,1-19.1847-2.51929,42.64508,42.64508,0,0,1-17.0542-9.01135q-7.55584-6.49017-12.30542-17.63452-4.75031-11.14179-4.74743-28.38977V129.08454a1.37043,1.37043,0,0,0-1.54944-1.55017h-5.03882q-4.65051.00009-5.71728-.58179-1.06678-.581-1.066-2.51934a8.74852,8.74852,0,0,1,2.22949-5.32917,6.79352,6.79352,0,0,1,5.52209-2.80981h4.26392c.90185,0,1.35571-.51453,1.35571-1.55017V68.42921q0-4.26014,3.48767-4.845,4.84352-.967,10.36853-2.61615,5.5221-1.64328,11.23938-3.87586,5.7129-2.22537,11.23938-4.84424a99.83334,99.83334,0,0,0,10.17346-5.52288,4.42166,4.42166,0,0,1,3.97266-.38813q1.84076.77738,1.84216,3.87586v64.72485c0,.90558.51453,1.35651,1.54944,1.35651h36.43262q4.65051,0,5.71582.58178c.70972.38739,1.066,1.22937,1.066,2.51935q0,2.52036-2.713,5.32916a8.20842,8.20842,0,0,1-6.00708,2.80988h-34.68811a1.19894,1.19894,0,0,0-1.35572,1.35651V248.06953a21.11174,21.11174,0,0,0,6.68567,15.98755,19.05789,19.05789,0,0,0,6.97547,4.16638,24.69884,24.69884,0,0,0,8.043,1.35644,48.09269,48.09269,0,0,0,15.50184-2.42175A80.84419,80.84419,0,0,0,1274.13669,262.60371Z"/>
  </g>
</svg>
