<svg xmlns="http://www.w3.org/2000/svg" viewBox="0 0 50.01 50.00193">
  <defs>
    <style>
      .a {
        fill: none;
      }

      .b {
        fill: #313131;
      }

      .c {
        fill: #fcfcfc;
      }
    </style>
  </defs>
  <g>
    <path class="a" d="M31.14455,22.81771l.33382-3.36521H27.07563V17.23308a1.16862,1.16862,0,0,1,1.218-1.32624h3.10357V11.16127H27.12074c-4.76363,0-5.82822,3.51858-5.82822,5.80115V19.4525H18.53178V24.992H21.3286V38.8408h5.53952V24.992h4.096Z"/>
    <path class="b" d="M25.001,0A25.001,25.001,0,1,1,0,25.001,25.033,25.033,0,0,1,25.001,0Z"/>
    <path class="c" d="M31.47837,19.4525l-.33382,3.36521-.18044,2.1743h-4.096V38.8408H21.3286V24.992H18.53178V19.4525h2.76074V16.96242c0-2.28257,1.06459-5.80115,5.82822-5.80115h4.27643v4.74557H28.2936a1.16862,1.16862,0,0,0-1.218,1.32624V19.4525Z"/>
  </g>
</svg>
