<svg xmlns="http://www.w3.org/2000/svg" viewBox="0 0 49.99385 50.00193">
  <defs>
    <style>
      .a {
        fill: #313131;
      }

      .b {
        fill: #fcfcfc;
      }
    </style>
  </defs>
  <g>
    <path class="a" d="M24.99289,0A25.001,25.001,0,1,1,0,25.001,25.02608,25.02608,0,0,1,24.99289,0Zm14.337,32.08874V17.91319a6.64238,6.64238,0,0,0-6.63571-6.64379H18.51056a6.64927,6.64927,0,0,0-6.64378,6.64379V32.08874a6.64927,6.64927,0,0,0,6.64378,6.64378H32.69419A6.64237,6.64237,0,0,0,39.3299,32.08874Z"/>
    <path class="b" d="M39.3299,17.91319V32.08874a6.64237,6.64237,0,0,1-6.63571,6.64378H18.51056a6.64927,6.64927,0,0,1-6.64378-6.64378V17.91319a6.64927,6.64927,0,0,1,6.64378-6.64379H32.69419A6.64238,6.64238,0,0,1,39.3299,17.91319ZM37.18258,32.08874V17.91319a4.48414,4.48414,0,0,0-4.48839-4.49646H18.51056a4.49772,4.49772,0,0,0-4.49646,4.49646V32.08874a4.49773,4.49773,0,0,0,4.49646,4.49646H32.69419A4.49085,4.49085,0,0,0,37.18258,32.08874Z"/>
    <path class="a" d="M37.18258,24.99289v7.09585a4.49085,4.49085,0,0,1-4.48839,4.49646H25.59027V33.95352a8.96618,8.96618,0,0,0,8.96063-8.96063Z"/>
    <path class="a" d="M37.18258,17.91319v7.0797H34.5509a8.94168,8.94168,0,0,0-3.26135-6.91018l1.75176-.24218a1.68093,1.68093,0,0,0,2.7447-1.29969,1.74853,1.74853,0,0,0-.12916-.65389l.98486-.12109A4.48436,4.48436,0,0,1,37.18258,17.91319Z"/>
    <path class="a" d="M36.64171,15.76586l-.98486.12109a1.70525,1.70525,0,0,0-1.54995-1.02522,1.68049,1.68049,0,0,0-1.06559,2.9788l-1.75176.24218a8.95673,8.95673,0,0,0-14.65991,6.91018H14.0141v-7.0797a4.49772,4.49772,0,0,1,4.49646-4.49646H32.69419A4.49364,4.49364,0,0,1,36.64171,15.76586Z"/>
    <path class="b" d="M35.65685,15.887a1.74853,1.74853,0,0,1,.12916.65389,1.67911,1.67911,0,1,1-1.67911-1.67911A1.70525,1.70525,0,0,1,35.65685,15.887Z"/>
    <path class="b" d="M34.5509,24.99289a8.96893,8.96893,0,1,1-3.26135-6.91018A8.96618,8.96618,0,0,1,34.5509,24.99289Zm-2.35722,0a6.59132,6.59132,0,1,0-6.60341,6.60342A6.60448,6.60448,0,0,0,32.19368,24.99289Z"/>
    <path class="a" d="M25.59027,18.39754a6.59942,6.59942,0,1,1-6.5792,6.59535A6.60448,6.60448,0,0,1,25.59027,18.39754Z"/>
    <path class="a" d="M25.59027,33.95352V36.5852H18.51056a4.49773,4.49773,0,0,1-4.49646-4.49646V24.99289h2.61554A8.97655,8.97655,0,0,0,25.59027,33.95352Z"/>
  </g>
</svg>
